<?xml version="1.0" encoding="utf-8"?>
<!-- Generator: Adobe Illustrator 16.0.0, SVG Export Plug-In . SVG Version: 6.00 Build 0)  -->
<!DOCTYPE svg PUBLIC "-//W3C//DTD SVG 1.1//EN" "http://www.w3.org/Graphics/SVG/1.1/DTD/svg11.dtd">
<svg version="1.1" id="Layer_1" xmlns="http://www.w3.org/2000/svg" xmlns:xlink="http://www.w3.org/1999/xlink" x="0px" y="0px"
	 width="100%" height="155px" viewBox="0 0 260 155" enable-background="new 0 0 260 155" xml:space="preserve">
<g>
	<g>
		<g>
			<path fill="#FFFFFF" stroke="#12110B" stroke-width="0.5" stroke-miterlimit="10" d="M8.295,34.318l34.962-4.685l1.238,9.232
				l-19.175,2.57l1.413,10.54l16.915-2.267l1.209,9.021l-16.916,2.267l1.458,10.891l19.172-2.57l1.361,10.148l-34.963,4.688
				L8.295,34.318z"/>
			<path fill="#FFFFFF" stroke="#12110B" stroke-width="0.5" stroke-miterlimit="10" d="M51.422,28.542l14.663-1.965l15.002,17.72
				l9.806-21.042l15.015-2.011l6.676,49.832l-16.14,2.161l-3.627-27.063l-8.989,21.255l-3.42,0.459L65.751,49.799l3.627,27.061
				l-11.281,1.514L51.422,28.542z"/>
			<path fill="#FFFFFF" stroke="#12110B" stroke-width="0.5" stroke-miterlimit="10" d="M143.447,67.978
				c-3.081,0.413-5.874,0.445-8.383,0.103c-2.511-0.35-4.768-0.989-6.768-1.929c-2.004-0.938-3.756-2.138-5.252-3.599
				c-1.5-1.461-2.786-3.097-3.85-4.899c-1.07-1.807-1.927-3.744-2.573-5.812c-0.65-2.062-1.119-4.189-1.41-6.375
				c-0.291-2.161-0.356-4.336-0.194-6.522c0.162-2.184,0.559-4.299,1.195-6.348c0.634-2.043,1.523-3.982,2.664-5.806
				c1.145-1.83,2.551-3.466,4.225-4.91c1.671-1.444,3.618-2.661,5.841-3.649c2.221-0.995,4.743-1.677,7.564-2.056
				c2.819-0.375,5.431-0.381,7.835-0.009c2.406,0.371,4.61,1.031,6.617,1.98c2.005,0.953,3.798,2.159,5.382,3.62
				c1.581,1.461,2.956,3.097,4.12,4.901c1.16,1.809,2.109,3.742,2.84,5.812c0.73,2.062,1.242,4.176,1.529,6.341
				c0.295,2.184,0.395,4.358,0.305,6.523c-0.094,2.166-0.418,4.261-0.975,6.285c-0.551,2.022-1.367,3.936-2.439,5.741
				c-1.072,1.809-2.447,3.426-4.122,4.855c-1.671,1.434-3.679,2.65-6.022,3.645C149.233,66.863,146.524,67.567,143.447,67.978z
				 M130.999,43.352c0.377,2.821,0.904,5.199,1.583,7.141c0.68,1.944,1.484,3.496,2.419,4.666c0.934,1.164,1.997,1.969,3.193,2.406
				c1.192,0.436,2.499,0.561,3.908,0.375c1.409-0.188,2.631-0.654,3.669-1.391c1.037-0.736,1.861-1.791,2.482-3.167
				c0.616-1.37,0.995-3.088,1.141-5.14c0.143-2.049,0.026-4.486-0.353-7.305c-0.378-2.819-0.908-5.208-1.587-7.158
				c-0.682-1.958-1.5-3.522-2.456-4.693c-0.96-1.176-2.037-1.994-3.236-2.458s-2.501-0.601-3.911-0.407
				c-1.409,0.188-2.632,0.66-3.666,1.423s-1.849,1.83-2.44,3.213c-0.591,1.383-0.96,3.103-1.099,5.171
				C130.5,38.089,130.621,40.535,130.999,43.352z"/>
			<path fill="#FFFFFF" stroke="#12110B" stroke-width="0.5" stroke-miterlimit="10" d="M180.336,63.038
				c-2.137,0.285-4.221,0.407-6.244,0.369c-2.027-0.036-3.805-0.407-5.334-1.113l-1.346-10.046c1.641,0.285,3.143,0.401,4.514,0.35
				c1.367-0.053,2.543-0.145,3.531-0.278c1.059-0.143,1.857-0.472,2.396-0.986c0.543-0.515,0.918-1.132,1.131-1.851
				c0.217-0.725,0.301-1.52,0.256-2.387c-0.043-0.866-0.119-1.727-0.236-2.57l-4.35-32.495l15.787-2.113l4.646,34.715
				c0.379,2.819,0.211,5.307-0.504,7.474c-0.713,2.165-1.773,4.008-3.184,5.541c-1.41,1.524-3.09,2.741-5.039,3.632
				C184.412,62.176,182.404,62.76,180.336,63.038z"/>
			<path fill="#FFFFFF" stroke="#12110B" stroke-width="0.5" stroke-miterlimit="10" d="M199.174,8.747l15.789-2.115l6.678,49.831
				l-15.791,2.114L199.174,8.747z"/>
			<path fill="#FFFFFF" stroke="#12110B" stroke-width="0.5" stroke-miterlimit="10" d="M68.339,111.885
				c-1.021-0.295-2.199-0.572-3.536-0.834c-1.338-0.266-2.732-0.479-4.176-0.646c-1.446-0.164-2.903-0.262-4.364-0.291
				c-1.46-0.033-2.829,0.035-4.096,0.207c-2.211,0.295-3.898,0.809-5.068,1.537c-1.17,0.73-1.666,1.768-1.484,3.105
				c0.084,0.635,0.375,1.164,0.877,1.584c0.498,0.426,1.172,0.789,2.03,1.094c0.85,0.309,1.861,0.578,3.032,0.814
				c1.166,0.238,2.46,0.477,3.879,0.717l2.682,0.467c2.248,0.367,4.297,0.904,6.133,1.602c1.838,0.697,3.438,1.596,4.794,2.689
				c1.351,1.104,2.456,2.42,3.31,3.955c0.849,1.533,1.415,3.338,1.69,5.406c0.327,2.418,0.238,4.674-0.259,6.764
				c-0.498,2.082-1.461,3.941-2.896,5.572c-1.432,1.623-3.358,2.992-5.779,4.109c-2.424,1.115-5.408,1.904-8.958,2.381
				c-3.147,0.42-6.312,0.582-9.494,0.486c-3.183-0.102-6.444-0.59-9.79-1.453l-1.558-11.629c3.238,1.143,6.331,1.883,9.283,2.219
				c2.951,0.33,5.812,0.311,8.586-0.059c2.275-0.303,3.892-0.891,4.839-1.758c0.946-0.869,1.338-1.953,1.164-3.244
				c-0.104-0.777-0.388-1.41-0.85-1.914c-0.464-0.498-1.151-0.924-2.073-1.281c-0.921-0.355-2.108-0.678-3.557-0.975
				c-1.45-0.299-3.202-0.615-5.258-0.965c-2.053-0.322-3.98-0.816-5.78-1.486c-1.801-0.666-3.395-1.549-4.784-2.641
				c-1.389-1.096-2.544-2.428-3.459-4.006c-0.917-1.572-1.518-3.432-1.802-5.566c-0.297-2.209-0.181-4.283,0.348-6.219
				c0.531-1.936,1.503-3.668,2.933-5.18c1.419-1.521,3.31-2.809,5.669-3.865c2.355-1.055,5.229-1.811,8.612-2.266
				c1.338-0.18,2.766-0.312,4.286-0.395s3.074-0.113,4.671-0.088c1.592,0.023,3.177,0.127,4.754,0.295
				c1.581,0.172,3.084,0.426,4.516,0.758L68.339,111.885z"/>
			<path fill="#FFFFFF" stroke="#12110B" stroke-width="0.5" stroke-miterlimit="10" d="M126.35,141.674l-18.82,2.521l-3.747-10.297
				l-12.371,1.654l-0.797,10.906l-12.721,1.707l6.01-51.533l22.061-2.957L126.35,141.674z M93.543,103.234l-1.716,23.869
				l10.077-1.352l-7.269-22.666L93.543,103.234z"/>
			<path fill="#FFFFFF" stroke="#12110B" stroke-width="0.5" stroke-miterlimit="10" d="M122.696,91.436l15.791-2.115l5.315,39.686
				l16.915-2.27l1.361,10.148l-32.704,4.385L122.696,91.436z"/>
			<path fill="#FFFFFF" stroke="#12110B" stroke-width="0.5" stroke-miterlimit="10" d="M212.469,130.547l-18.818,2.521
				l-3.752-10.295l-12.371,1.654l-0.797,10.906l-12.723,1.707l6.012-51.535l22.062-2.957L212.469,130.547z M179.66,92.107
				l-1.717,23.871l10.078-1.352l-7.27-22.666L179.66,92.107z"/>
			<path fill="#FFFFFF" stroke="#12110B" stroke-width="0.5" stroke-miterlimit="10" d="M215.49,130.143l-6.674-49.834l17.338-2.322
				c4.277-0.572,8.184-0.586,11.725-0.045c3.539,0.541,6.625,1.67,9.264,3.385c2.629,1.719,4.781,4.023,6.453,6.924
				c1.662,2.895,2.775,6.412,3.328,10.547c0.424,3.15,0.477,6.008,0.164,8.572c-0.316,2.564-0.939,4.865-1.873,6.902
				c-0.936,2.043-2.152,3.826-3.66,5.352c-1.506,1.533-3.227,2.85-5.158,3.957c-1.934,1.109-4.053,2.012-6.361,2.699
				c-2.314,0.691-4.758,1.213-7.346,1.559L215.49,130.143z M229.768,116.748l1.059-0.143c1.832-0.246,3.48-0.637,4.936-1.184
				c1.457-0.537,2.654-1.387,3.588-2.539s1.566-2.684,1.893-4.594c0.332-1.91,0.299-4.369-0.105-7.377
				c-0.365-2.727-0.932-4.963-1.689-6.717c-0.76-1.752-1.721-3.102-2.873-4.062c-1.158-0.955-2.51-1.562-4.051-1.826
				c-1.539-0.258-3.262-0.262-5.168-0.006l-1.371,0.184L229.768,116.748z"/>
		</g>
		<g>
			<path fill="#1D1D1B" d="M8.295,34.318l34.962-4.685l1.238,9.232l-19.175,2.57l1.413,10.54l16.915-2.267l1.209,9.021
				l-16.916,2.267l1.458,10.891l19.172-2.57l1.361,10.148l-34.963,4.688L8.295,34.318z"/>
			<path fill="#1D1D1B" d="M51.422,28.542l14.663-1.965l15.002,17.72l9.806-21.042l15.015-2.011l6.676,49.832l-16.14,2.161
				l-3.627-27.063l-8.989,21.255l-3.42,0.459L65.751,49.799l3.627,27.061l-11.281,1.514L51.422,28.542z"/>
			<path fill="#1D1D1B" d="M143.447,67.978c-3.081,0.413-5.874,0.445-8.383,0.103c-2.511-0.35-4.768-0.989-6.768-1.929
				c-2.004-0.938-3.756-2.138-5.252-3.599c-1.5-1.461-2.786-3.097-3.85-4.899c-1.07-1.807-1.927-3.744-2.573-5.812
				c-0.65-2.062-1.119-4.189-1.41-6.375c-0.291-2.161-0.356-4.336-0.194-6.522c0.162-2.184,0.559-4.299,1.195-6.348
				c0.634-2.043,1.523-3.982,2.664-5.806c1.145-1.83,2.551-3.466,4.225-4.91c1.671-1.444,3.618-2.661,5.841-3.649
				c2.221-0.995,4.743-1.677,7.564-2.056c2.819-0.375,5.431-0.381,7.835-0.009c2.406,0.371,4.61,1.031,6.617,1.98
				c2.005,0.953,3.798,2.159,5.382,3.62c1.581,1.461,2.956,3.097,4.12,4.901c1.16,1.809,2.109,3.742,2.84,5.812
				c0.73,2.062,1.242,4.176,1.529,6.341c0.295,2.184,0.395,4.358,0.305,6.523c-0.094,2.166-0.418,4.261-0.975,6.285
				c-0.551,2.022-1.367,3.936-2.439,5.741c-1.072,1.809-2.447,3.426-4.122,4.855c-1.671,1.434-3.679,2.65-6.022,3.645
				C149.233,66.863,146.524,67.567,143.447,67.978z M130.999,43.352c0.377,2.821,0.904,5.199,1.583,7.141
				c0.68,1.944,1.484,3.496,2.419,4.666c0.934,1.164,1.997,1.969,3.193,2.406c1.192,0.436,2.499,0.561,3.908,0.375
				c1.409-0.188,2.631-0.654,3.669-1.391c1.037-0.736,1.861-1.791,2.482-3.167c0.616-1.37,0.995-3.088,1.141-5.14
				c0.143-2.049,0.026-4.486-0.353-7.305c-0.378-2.819-0.908-5.208-1.587-7.158c-0.682-1.958-1.5-3.522-2.456-4.693
				c-0.96-1.176-2.037-1.994-3.236-2.458s-2.501-0.601-3.911-0.407c-1.409,0.188-2.632,0.66-3.666,1.423s-1.849,1.83-2.44,3.213
				c-0.591,1.383-0.96,3.103-1.099,5.171C130.5,38.089,130.621,40.535,130.999,43.352z"/>
			<path fill="#1D1D1B" d="M180.336,63.038c-2.137,0.285-4.221,0.407-6.244,0.369c-2.027-0.036-3.805-0.407-5.334-1.113
				l-1.346-10.046c1.641,0.285,3.143,0.401,4.514,0.35c1.367-0.053,2.543-0.145,3.531-0.278c1.059-0.143,1.857-0.472,2.396-0.986
				c0.543-0.515,0.918-1.132,1.131-1.851c0.217-0.725,0.301-1.52,0.256-2.387c-0.043-0.866-0.119-1.727-0.236-2.57l-4.35-32.495
				l15.787-2.113l4.646,34.715c0.379,2.819,0.211,5.307-0.504,7.474c-0.713,2.165-1.773,4.008-3.184,5.541
				c-1.41,1.524-3.09,2.741-5.039,3.632C184.412,62.176,182.404,62.76,180.336,63.038z"/>
			<path fill="#1D1D1B" d="M199.174,8.747l15.789-2.115l6.678,49.831l-15.791,2.114L199.174,8.747z"/>
			<path fill="#1D1D1B" d="M68.339,111.885c-1.021-0.295-2.199-0.572-3.536-0.834c-1.338-0.266-2.732-0.479-4.176-0.646
				c-1.446-0.164-2.903-0.262-4.364-0.291c-1.46-0.033-2.829,0.035-4.096,0.207c-2.211,0.295-3.898,0.809-5.068,1.537
				c-1.17,0.73-1.666,1.768-1.484,3.105c0.084,0.635,0.375,1.164,0.877,1.584c0.498,0.426,1.172,0.789,2.03,1.094
				c0.85,0.309,1.861,0.578,3.032,0.814c1.166,0.238,2.46,0.477,3.879,0.717l2.682,0.467c2.248,0.367,4.297,0.904,6.133,1.602
				c1.838,0.697,3.438,1.596,4.794,2.689c1.351,1.104,2.456,2.42,3.31,3.955c0.849,1.533,1.415,3.338,1.69,5.406
				c0.327,2.418,0.238,4.674-0.259,6.764c-0.498,2.082-1.461,3.941-2.896,5.572c-1.432,1.623-3.358,2.992-5.779,4.109
				c-2.424,1.115-5.408,1.904-8.958,2.381c-3.147,0.42-6.312,0.582-9.494,0.486c-3.183-0.102-6.444-0.59-9.79-1.453l-1.558-11.629
				c3.238,1.143,6.331,1.883,9.283,2.219c2.951,0.33,5.812,0.311,8.586-0.059c2.275-0.303,3.892-0.891,4.839-1.758
				c0.946-0.869,1.338-1.953,1.164-3.244c-0.104-0.777-0.388-1.41-0.85-1.914c-0.464-0.498-1.151-0.924-2.073-1.281
				c-0.921-0.355-2.108-0.678-3.557-0.975c-1.45-0.299-3.202-0.615-5.258-0.965c-2.053-0.322-3.98-0.816-5.78-1.486
				c-1.801-0.666-3.395-1.549-4.784-2.641c-1.389-1.096-2.544-2.428-3.459-4.006c-0.917-1.572-1.518-3.432-1.802-5.566
				c-0.297-2.209-0.181-4.283,0.348-6.219c0.531-1.936,1.503-3.668,2.933-5.18c1.419-1.521,3.31-2.809,5.669-3.865
				c2.355-1.055,5.229-1.811,8.612-2.266c1.338-0.18,2.766-0.312,4.286-0.395s3.074-0.113,4.671-0.088
				c1.592,0.023,3.177,0.127,4.754,0.295c1.581,0.172,3.084,0.426,4.516,0.758L68.339,111.885z"/>
			<path fill="#1D1D1B" d="M126.35,141.674l-18.82,2.521l-3.747-10.297l-12.371,1.654l-0.797,10.906l-12.721,1.707l6.01-51.533
				l22.061-2.957L126.35,141.674z M93.543,103.234l-1.716,23.869l10.077-1.352l-7.269-22.666L93.543,103.234z"/>
			<path fill="#1D1D1B" d="M122.696,91.436l15.791-2.115l5.315,39.686l16.915-2.27l1.361,10.148l-32.704,4.385L122.696,91.436z"/>
			<path fill="#1D1D1B" d="M212.469,130.547l-18.818,2.521l-3.752-10.295l-12.371,1.654l-0.797,10.906l-12.723,1.707l6.012-51.535
				l22.062-2.957L212.469,130.547z M179.66,92.107l-1.717,23.871l10.078-1.352l-7.27-22.666L179.66,92.107z"/>
			<path fill="#1D1D1B" d="M215.49,130.143l-6.674-49.834l17.338-2.322c4.277-0.572,8.184-0.586,11.725-0.045
				c3.539,0.541,6.625,1.67,9.264,3.385c2.629,1.719,4.781,4.023,6.453,6.924c1.662,2.895,2.775,6.412,3.328,10.547
				c0.424,3.15,0.477,6.008,0.164,8.572c-0.316,2.564-0.939,4.865-1.873,6.902c-0.936,2.043-2.152,3.826-3.66,5.352
				c-1.506,1.533-3.227,2.85-5.158,3.957c-1.934,1.109-4.053,2.012-6.361,2.699c-2.314,0.691-4.758,1.213-7.346,1.559
				L215.49,130.143z M229.768,116.748l1.059-0.143c1.832-0.246,3.48-0.637,4.936-1.184c1.457-0.537,2.654-1.387,3.588-2.539
				s1.566-2.684,1.893-4.594c0.332-1.91,0.299-4.369-0.105-7.377c-0.365-2.727-0.932-4.963-1.689-6.717
				c-0.76-1.752-1.721-3.102-2.873-4.062c-1.158-0.955-2.51-1.562-4.051-1.826c-1.539-0.258-3.262-0.262-5.168-0.006l-1.371,0.184
				L229.768,116.748z"/>
		</g>
		<g>
			<path fill="none" stroke="#1D1D1B" d="M8.295,34.318l34.962-4.685l1.238,9.232l-19.175,2.57l1.413,10.54l16.915-2.267
				l1.209,9.021l-16.916,2.267l1.458,10.891l19.172-2.57l1.361,10.148l-34.963,4.688L8.295,34.318z"/>
			<path fill="none" stroke="#1D1D1B" d="M51.422,28.542l14.663-1.965l15.002,17.72l9.806-21.042l15.015-2.011l6.676,49.832
				l-16.14,2.161l-3.627-27.063l-8.989,21.255l-3.42,0.459L65.751,49.799l3.627,27.061l-11.281,1.514L51.422,28.542z"/>
			<path fill="none" stroke="#1D1D1B" d="M143.447,67.978c-3.081,0.413-5.874,0.445-8.383,0.103
				c-2.511-0.35-4.768-0.989-6.768-1.929c-2.004-0.938-3.756-2.138-5.252-3.599c-1.5-1.461-2.786-3.097-3.85-4.899
				c-1.07-1.807-1.927-3.744-2.573-5.812c-0.65-2.062-1.119-4.189-1.41-6.375c-0.291-2.161-0.356-4.336-0.194-6.522
				c0.162-2.184,0.559-4.299,1.195-6.348c0.634-2.043,1.523-3.982,2.664-5.806c1.145-1.83,2.551-3.466,4.225-4.91
				c1.671-1.444,3.618-2.661,5.841-3.649c2.221-0.995,4.743-1.677,7.564-2.056c2.819-0.375,5.431-0.381,7.835-0.009
				c2.406,0.371,4.61,1.031,6.617,1.98c2.005,0.953,3.798,2.159,5.382,3.62c1.581,1.461,2.956,3.097,4.12,4.901
				c1.16,1.809,2.109,3.742,2.84,5.812c0.73,2.062,1.242,4.176,1.529,6.341c0.295,2.184,0.395,4.358,0.305,6.523
				c-0.094,2.166-0.418,4.261-0.975,6.285c-0.551,2.022-1.367,3.936-2.439,5.741c-1.072,1.809-2.447,3.426-4.122,4.855
				c-1.671,1.434-3.679,2.65-6.022,3.645C149.233,66.863,146.524,67.567,143.447,67.978z M130.999,43.352
				c0.377,2.821,0.904,5.199,1.583,7.141c0.68,1.944,1.484,3.496,2.419,4.666c0.934,1.164,1.997,1.969,3.193,2.406
				c1.192,0.436,2.499,0.561,3.908,0.375c1.409-0.188,2.631-0.654,3.669-1.391c1.037-0.736,1.861-1.791,2.482-3.167
				c0.616-1.37,0.995-3.088,1.141-5.14c0.143-2.049,0.026-4.486-0.353-7.305c-0.378-2.819-0.908-5.208-1.587-7.158
				c-0.682-1.958-1.5-3.522-2.456-4.693c-0.96-1.176-2.037-1.994-3.236-2.458s-2.501-0.601-3.911-0.407
				c-1.409,0.188-2.632,0.66-3.666,1.423s-1.849,1.83-2.44,3.213c-0.591,1.383-0.96,3.103-1.099,5.171
				C130.5,38.089,130.621,40.535,130.999,43.352z"/>
			<path fill="none" stroke="#1D1D1B" d="M180.336,63.038c-2.137,0.285-4.221,0.407-6.244,0.369
				c-2.027-0.036-3.805-0.407-5.334-1.113l-1.346-10.046c1.641,0.285,3.143,0.401,4.514,0.35c1.367-0.053,2.543-0.145,3.531-0.278
				c1.059-0.143,1.857-0.472,2.396-0.986c0.543-0.515,0.918-1.132,1.131-1.851c0.217-0.725,0.301-1.52,0.256-2.387
				c-0.043-0.866-0.119-1.727-0.236-2.57l-4.35-32.495l15.787-2.113l4.646,34.715c0.379,2.819,0.211,5.307-0.504,7.474
				c-0.713,2.165-1.773,4.008-3.184,5.541c-1.41,1.524-3.09,2.741-5.039,3.632C184.412,62.176,182.404,62.76,180.336,63.038z"/>
			<path fill="none" stroke="#1D1D1B" d="M199.174,8.747l15.789-2.115l6.678,49.831l-15.791,2.114L199.174,8.747z"/>
			<path fill="none" stroke="#1D1D1B" d="M68.339,111.885c-1.021-0.295-2.199-0.572-3.536-0.834
				c-1.338-0.266-2.732-0.479-4.176-0.646c-1.446-0.164-2.903-0.262-4.364-0.291c-1.46-0.033-2.829,0.035-4.096,0.207
				c-2.211,0.295-3.898,0.809-5.068,1.537c-1.17,0.73-1.666,1.768-1.484,3.105c0.084,0.635,0.375,1.164,0.877,1.584
				c0.498,0.426,1.172,0.789,2.03,1.094c0.85,0.309,1.861,0.578,3.032,0.814c1.166,0.238,2.46,0.477,3.879,0.717l2.682,0.467
				c2.248,0.367,4.297,0.904,6.133,1.602c1.838,0.697,3.438,1.596,4.794,2.689c1.351,1.104,2.456,2.42,3.31,3.955
				c0.849,1.533,1.415,3.338,1.69,5.406c0.327,2.418,0.238,4.674-0.259,6.764c-0.498,2.082-1.461,3.941-2.896,5.572
				c-1.432,1.623-3.358,2.992-5.779,4.109c-2.424,1.115-5.408,1.904-8.958,2.381c-3.147,0.42-6.312,0.582-9.494,0.486
				c-3.183-0.102-6.444-0.59-9.79-1.453l-1.558-11.629c3.238,1.143,6.331,1.883,9.283,2.219c2.951,0.33,5.812,0.311,8.586-0.059
				c2.275-0.303,3.892-0.891,4.839-1.758c0.946-0.869,1.338-1.953,1.164-3.244c-0.104-0.777-0.388-1.41-0.85-1.914
				c-0.464-0.498-1.151-0.924-2.073-1.281c-0.921-0.355-2.108-0.678-3.557-0.975c-1.45-0.299-3.202-0.615-5.258-0.965
				c-2.053-0.322-3.98-0.816-5.78-1.486c-1.801-0.666-3.395-1.549-4.784-2.641c-1.389-1.096-2.544-2.428-3.459-4.006
				c-0.917-1.572-1.518-3.432-1.802-5.566c-0.297-2.209-0.181-4.283,0.348-6.219c0.531-1.936,1.503-3.668,2.933-5.18
				c1.419-1.521,3.31-2.809,5.669-3.865c2.355-1.055,5.229-1.811,8.612-2.266c1.338-0.18,2.766-0.312,4.286-0.395
				s3.074-0.113,4.671-0.088c1.592,0.023,3.177,0.127,4.754,0.295c1.581,0.172,3.084,0.426,4.516,0.758L68.339,111.885z"/>
			<path fill="none" stroke="#1D1D1B" d="M126.35,141.674l-18.82,2.521l-3.747-10.297l-12.371,1.654l-0.797,10.906l-12.721,1.707
				l6.01-51.533l22.061-2.957L126.35,141.674z M93.543,103.234l-1.716,23.869l10.077-1.352l-7.269-22.666L93.543,103.234z"/>
			<path fill="none" stroke="#1D1D1B" d="M122.696,91.436l15.791-2.115l5.315,39.686l16.915-2.27l1.361,10.148l-32.704,4.385
				L122.696,91.436z"/>
			<path fill="none" stroke="#1D1D1B" d="M212.469,130.547l-18.818,2.521l-3.752-10.295l-12.371,1.654l-0.797,10.906l-12.723,1.707
				l6.012-51.535l22.062-2.957L212.469,130.547z M179.66,92.107l-1.717,23.871l10.078-1.352l-7.27-22.666L179.66,92.107z"/>
			<path fill="none" stroke="#1D1D1B" d="M215.49,130.143l-6.674-49.834l17.338-2.322c4.277-0.572,8.184-0.586,11.725-0.045
				c3.539,0.541,6.625,1.67,9.264,3.385c2.629,1.719,4.781,4.023,6.453,6.924c1.662,2.895,2.775,6.412,3.328,10.547
				c0.424,3.15,0.477,6.008,0.164,8.572c-0.316,2.564-0.939,4.865-1.873,6.902c-0.936,2.043-2.152,3.826-3.66,5.352
				c-1.506,1.533-3.227,2.85-5.158,3.957c-1.934,1.109-4.053,2.012-6.361,2.699c-2.314,0.691-4.758,1.213-7.346,1.559
				L215.49,130.143z M229.768,116.748l1.059-0.143c1.832-0.246,3.48-0.637,4.936-1.184c1.457-0.537,2.654-1.387,3.588-2.539
				s1.566-2.684,1.893-4.594c0.332-1.91,0.299-4.369-0.105-7.377c-0.365-2.727-0.932-4.963-1.689-6.717
				c-0.76-1.752-1.721-3.102-2.873-4.062c-1.158-0.955-2.51-1.562-4.051-1.826c-1.539-0.258-3.262-0.262-5.168-0.006l-1.371,0.184
				L229.768,116.748z"/>
		</g>
		<g>
			<path fill="#12110B" d="M8.295,34.318l34.962-4.685l1.238,9.232l-19.175,2.57l1.413,10.54l16.915-2.267l1.209,9.021
				l-16.916,2.267l1.458,10.891l19.172-2.57l1.361,10.148l-34.963,4.688L8.295,34.318z"/>
			<path fill="#12110B" d="M51.422,28.542l14.663-1.965l15.002,17.72l9.806-21.042l15.015-2.011l6.676,49.832l-16.14,2.161
				l-3.627-27.063l-8.989,21.255l-3.42,0.459L65.751,49.799l3.627,27.061l-11.281,1.514L51.422,28.542z"/>
			<path fill="#12110B" d="M143.447,67.978c-3.081,0.413-5.874,0.445-8.383,0.103c-2.511-0.35-4.768-0.989-6.768-1.929
				c-2.004-0.938-3.756-2.138-5.252-3.599c-1.5-1.461-2.786-3.097-3.85-4.899c-1.07-1.807-1.927-3.744-2.573-5.812
				c-0.65-2.062-1.119-4.189-1.41-6.375c-0.291-2.161-0.356-4.336-0.194-6.522c0.162-2.184,0.559-4.299,1.195-6.348
				c0.634-2.043,1.523-3.982,2.664-5.806c1.145-1.83,2.551-3.466,4.225-4.91c1.671-1.444,3.618-2.661,5.841-3.649
				c2.221-0.995,4.743-1.677,7.564-2.056c2.819-0.375,5.431-0.381,7.835-0.009c2.406,0.371,4.61,1.031,6.617,1.98
				c2.005,0.953,3.798,2.159,5.382,3.62c1.581,1.461,2.956,3.097,4.12,4.901c1.16,1.809,2.109,3.742,2.84,5.812
				c0.73,2.062,1.242,4.176,1.529,6.341c0.295,2.184,0.395,4.358,0.305,6.523c-0.094,2.166-0.418,4.261-0.975,6.285
				c-0.551,2.022-1.367,3.936-2.439,5.741c-1.072,1.809-2.447,3.426-4.122,4.855c-1.671,1.434-3.679,2.65-6.022,3.645
				C149.233,66.863,146.524,67.567,143.447,67.978z M130.999,43.352c0.377,2.821,0.904,5.199,1.583,7.141
				c0.68,1.944,1.484,3.496,2.419,4.666c0.934,1.164,1.997,1.969,3.193,2.406c1.192,0.436,2.499,0.561,3.908,0.375
				c1.409-0.188,2.631-0.654,3.669-1.391c1.037-0.736,1.861-1.791,2.482-3.167c0.616-1.37,0.995-3.088,1.141-5.14
				c0.143-2.049,0.026-4.486-0.353-7.305c-0.378-2.819-0.908-5.208-1.587-7.158c-0.682-1.958-1.5-3.522-2.456-4.693
				c-0.96-1.176-2.037-1.994-3.236-2.458s-2.501-0.601-3.911-0.407c-1.409,0.188-2.632,0.66-3.666,1.423s-1.849,1.83-2.44,3.213
				c-0.591,1.383-0.96,3.103-1.099,5.171C130.5,38.089,130.621,40.535,130.999,43.352z"/>
			<path fill="#12110B" d="M180.336,63.038c-2.137,0.285-4.221,0.407-6.244,0.369c-2.027-0.036-3.805-0.407-5.334-1.113
				l-1.346-10.046c1.641,0.285,3.143,0.401,4.514,0.35c1.367-0.053,2.543-0.145,3.531-0.278c1.059-0.143,1.857-0.472,2.396-0.986
				c0.543-0.515,0.918-1.132,1.131-1.851c0.217-0.725,0.301-1.52,0.256-2.387c-0.043-0.866-0.119-1.727-0.236-2.57l-4.35-32.495
				l15.787-2.113l4.646,34.715c0.379,2.819,0.211,5.307-0.504,7.474c-0.713,2.165-1.773,4.008-3.184,5.541
				c-1.41,1.524-3.09,2.741-5.039,3.632C184.412,62.176,182.404,62.76,180.336,63.038z"/>
			<path fill="#12110B" d="M199.174,8.747l15.789-2.115l6.678,49.831l-15.791,2.114L199.174,8.747z"/>
			<path fill="#12110B" d="M68.339,111.885c-1.021-0.295-2.199-0.572-3.536-0.834c-1.338-0.266-2.732-0.479-4.176-0.646
				c-1.446-0.164-2.903-0.262-4.364-0.291c-1.46-0.033-2.829,0.035-4.096,0.207c-2.211,0.295-3.898,0.809-5.068,1.537
				c-1.17,0.73-1.666,1.768-1.484,3.105c0.084,0.635,0.375,1.164,0.877,1.584c0.498,0.426,1.172,0.789,2.03,1.094
				c0.85,0.309,1.861,0.578,3.032,0.814c1.166,0.238,2.46,0.477,3.879,0.717l2.682,0.467c2.248,0.367,4.297,0.904,6.133,1.602
				c1.838,0.697,3.438,1.596,4.794,2.689c1.351,1.104,2.456,2.42,3.31,3.955c0.849,1.533,1.415,3.338,1.69,5.406
				c0.327,2.418,0.238,4.674-0.259,6.764c-0.498,2.082-1.461,3.941-2.896,5.572c-1.432,1.623-3.358,2.992-5.779,4.109
				c-2.424,1.115-5.408,1.904-8.958,2.381c-3.147,0.42-6.312,0.582-9.494,0.486c-3.183-0.102-6.444-0.59-9.79-1.453l-1.558-11.629
				c3.238,1.143,6.331,1.883,9.283,2.219c2.951,0.33,5.812,0.311,8.586-0.059c2.275-0.303,3.892-0.891,4.839-1.758
				c0.946-0.869,1.338-1.953,1.164-3.244c-0.104-0.777-0.388-1.41-0.85-1.914c-0.464-0.498-1.151-0.924-2.073-1.281
				c-0.921-0.355-2.108-0.678-3.557-0.975c-1.45-0.299-3.202-0.615-5.258-0.965c-2.053-0.322-3.98-0.816-5.78-1.486
				c-1.801-0.666-3.395-1.549-4.784-2.641c-1.389-1.096-2.544-2.428-3.459-4.006c-0.917-1.572-1.518-3.432-1.802-5.566
				c-0.297-2.209-0.181-4.283,0.348-6.219c0.531-1.936,1.503-3.668,2.933-5.18c1.419-1.521,3.31-2.809,5.669-3.865
				c2.355-1.055,5.229-1.811,8.612-2.266c1.338-0.18,2.766-0.312,4.286-0.395s3.074-0.113,4.671-0.088
				c1.592,0.023,3.177,0.127,4.754,0.295c1.581,0.172,3.084,0.426,4.516,0.758L68.339,111.885z"/>
			<path fill="#12110B" d="M126.35,141.674l-18.82,2.521l-3.747-10.297l-12.371,1.654l-0.797,10.906l-12.721,1.707l6.01-51.533
				l22.061-2.957L126.35,141.674z M93.543,103.234l-1.716,23.869l10.077-1.352l-7.269-22.666L93.543,103.234z"/>
			<path fill="#12110B" d="M122.696,91.436l15.791-2.115l5.315,39.686l16.915-2.27l1.361,10.148l-32.704,4.385L122.696,91.436z"/>
			<path fill="#12110B" d="M212.469,130.547l-18.818,2.521l-3.752-10.295l-12.371,1.654l-0.797,10.906l-12.723,1.707l6.012-51.535
				l22.062-2.957L212.469,130.547z M179.66,92.107l-1.717,23.871l10.078-1.352l-7.27-22.666L179.66,92.107z"/>
			<path fill="#12110B" d="M215.49,130.143l-6.674-49.834l17.338-2.322c4.277-0.572,8.184-0.586,11.725-0.045
				c3.539,0.541,6.625,1.67,9.264,3.385c2.629,1.719,4.781,4.023,6.453,6.924c1.662,2.895,2.775,6.412,3.328,10.547
				c0.424,3.15,0.477,6.008,0.164,8.572c-0.316,2.564-0.939,4.865-1.873,6.902c-0.936,2.043-2.152,3.826-3.66,5.352
				c-1.506,1.533-3.227,2.85-5.158,3.957c-1.934,1.109-4.053,2.012-6.361,2.699c-2.314,0.691-4.758,1.213-7.346,1.559
				L215.49,130.143z M229.768,116.748l1.059-0.143c1.832-0.246,3.48-0.637,4.936-1.184c1.457-0.537,2.654-1.387,3.588-2.539
				s1.566-2.684,1.893-4.594c0.332-1.91,0.299-4.369-0.105-7.377c-0.365-2.727-0.932-4.963-1.689-6.717
				c-0.76-1.752-1.721-3.102-2.873-4.062c-1.158-0.955-2.51-1.562-4.051-1.826c-1.539-0.258-3.262-0.262-5.168-0.006l-1.371,0.184
				L229.768,116.748z"/>
		</g>
	</g>
	<g>
		<g>
			<path fill="#FFFFFF" stroke="#12110B" stroke-width="0.5" stroke-miterlimit="10" d="M2.712,30.055l34.961-4.68l1.239,9.231
				l-19.175,2.566l1.413,10.537l16.915-2.262l1.209,9.019l-16.916,2.269l1.458,10.887l19.173-2.565l1.36,10.149L9.387,79.889
				L2.712,30.055z"/>
			<path fill="#FFFFFF" stroke="#12110B" stroke-width="0.5" stroke-miterlimit="10" d="M45.839,24.278l14.663-1.962l15.002,17.719
				l9.807-21.046l15.014-2.01l6.676,49.835l-16.14,2.159l-3.627-27.062l-8.989,21.255l-3.42,0.459L60.169,45.534l3.627,27.065
				l-11.281,1.513L45.839,24.278z"/>
			<path fill="#FFFFFF" stroke="#12110B" stroke-width="0.5" stroke-miterlimit="10" d="M137.864,63.717
				c-3.081,0.414-5.873,0.447-8.382,0.104c-2.511-0.35-4.768-0.989-6.769-1.933c-2.004-0.936-3.756-2.136-5.253-3.597
				c-1.5-1.459-2.786-3.097-3.85-4.901c-1.07-1.807-1.927-3.742-2.573-5.809c-0.649-2.066-1.118-4.189-1.409-6.375
				c-0.291-2.165-0.355-4.337-0.194-6.523c0.162-2.184,0.559-4.301,1.197-6.348c0.633-2.042,1.522-3.982,2.663-5.808
				c1.145-1.828,2.551-3.461,4.225-4.91c1.672-1.442,3.618-2.657,5.841-3.65c2.221-0.992,4.743-1.677,7.564-2.052
				c2.819-0.378,5.431-0.382,7.835-0.012c2.405,0.375,4.609,1.033,6.616,1.984c2.005,0.95,3.8,2.159,5.383,3.62
				c1.581,1.462,2.954,3.096,4.118,4.9c1.16,1.807,2.11,3.744,2.842,5.808c0.73,2.066,1.242,4.181,1.529,6.344
				c0.293,2.184,0.395,4.36,0.303,6.525c-0.094,2.165-0.416,4.261-0.973,6.285c-0.553,2.02-1.367,3.936-2.44,5.741
				c-1.073,1.807-2.447,3.426-4.122,4.855c-1.67,1.436-3.679,2.648-6.021,3.645C143.65,62.6,140.941,63.304,137.864,63.717z
				 M125.417,39.089c0.378,2.818,0.904,5.201,1.583,7.141c0.679,1.943,1.484,3.498,2.418,4.666c0.934,1.166,1.997,1.967,3.194,2.407
				c1.191,0.433,2.498,0.563,3.907,0.371c1.409-0.188,2.631-0.653,3.67-1.387c1.037-0.735,1.861-1.794,2.482-3.167
				c0.616-1.375,0.994-3.09,1.14-5.14c0.143-2.049,0.026-4.487-0.352-7.305c-0.379-2.819-0.909-5.211-1.588-7.159
				c-0.682-1.957-1.5-3.521-2.456-4.695c-0.96-1.177-2.036-1.995-3.236-2.456c-1.198-0.462-2.501-0.599-3.91-0.407
				c-1.41,0.188-2.631,0.662-3.667,1.423c-1.034,0.761-1.849,1.832-2.44,3.215c-0.591,1.381-0.96,3.104-1.1,5.171
				C124.918,33.827,125.038,36.27,125.417,39.089z"/>
			<path fill="#FFFFFF" stroke="#12110B" stroke-width="0.5" stroke-miterlimit="10" d="M174.754,58.775
				c-2.137,0.287-4.223,0.409-6.246,0.371c-2.025-0.038-3.805-0.411-5.332-1.115l-1.346-10.043c1.639,0.284,3.143,0.398,4.514,0.35
				c1.367-0.055,2.543-0.149,3.531-0.278c1.057-0.143,1.857-0.472,2.396-0.988c0.543-0.51,0.918-1.132,1.131-1.854
				c0.217-0.723,0.301-1.516,0.256-2.382c-0.043-0.869-0.119-1.727-0.236-2.572L169.07,7.77l15.789-2.115l4.646,34.713
				c0.379,2.819,0.211,5.311-0.504,7.474c-0.715,2.169-1.773,4.012-3.184,5.544c-1.408,1.524-3.09,2.737-5.039,3.632
				C178.83,57.911,176.822,58.499,174.754,58.775z"/>
			<path fill="#FFFFFF" stroke="#12110B" stroke-width="0.5" stroke-miterlimit="10" d="M193.592,4.485l15.787-2.116l6.68,49.834
				l-15.791,2.112L193.592,4.485z"/>
			<path fill="#FFFFFF" stroke="#12110B" stroke-width="0.5" stroke-miterlimit="10" d="M62.757,107.623
				c-1.021-0.295-2.197-0.572-3.536-0.834c-1.339-0.266-2.732-0.479-4.176-0.646c-1.446-0.164-2.903-0.264-4.364-0.293
				c-1.461-0.031-2.829,0.037-4.096,0.209c-2.211,0.295-3.898,0.809-5.068,1.537c-1.17,0.73-1.663,1.768-1.484,3.107
				c0.084,0.633,0.375,1.162,0.877,1.584c0.498,0.426,1.172,0.789,2.03,1.092c0.85,0.309,1.861,0.576,3.032,0.812
				c1.166,0.242,2.46,0.48,3.879,0.721l2.682,0.465c2.248,0.369,4.297,0.902,6.133,1.604c1.838,0.695,3.438,1.594,4.794,2.689
				c1.352,1.098,2.457,2.418,3.31,3.953c0.85,1.535,1.415,3.34,1.691,5.408c0.327,2.418,0.238,4.674-0.259,6.762
				c-0.498,2.082-1.461,3.943-2.897,5.57c-1.431,1.625-3.358,2.996-5.778,4.107c-2.425,1.115-5.408,1.908-8.958,2.387
				c-3.147,0.42-6.312,0.582-9.493,0.484c-3.184-0.104-6.445-0.588-9.791-1.455l-1.558-11.631c3.238,1.145,6.331,1.889,9.283,2.223
				c2.951,0.33,5.812,0.312,8.586-0.057c2.275-0.307,3.892-0.895,4.838-1.762c0.947-0.869,1.339-1.949,1.164-3.242
				c-0.104-0.775-0.388-1.412-0.85-1.914c-0.463-0.498-1.151-0.924-2.072-1.281c-0.921-0.357-2.108-0.68-3.556-0.977
				c-1.451-0.295-3.203-0.615-5.258-0.963c-2.053-0.32-3.98-0.818-5.781-1.484c-1.8-0.668-3.394-1.553-4.783-2.645
				c-1.39-1.094-2.545-2.424-3.46-4c-0.917-1.578-1.518-3.436-1.803-5.572c-0.297-2.207-0.181-4.279,0.348-6.217
				c0.531-1.938,1.503-3.668,2.933-5.18c1.419-1.521,3.31-2.809,5.669-3.865c2.355-1.055,5.229-1.811,8.612-2.266
				c1.338-0.18,2.766-0.312,4.286-0.395c1.52-0.084,3.074-0.113,4.672-0.088c1.594,0.023,3.177,0.125,4.754,0.295
				c1.581,0.172,3.084,0.426,4.516,0.758L62.757,107.623z"/>
			<path fill="#FFFFFF" stroke="#12110B" stroke-width="0.5" stroke-miterlimit="10" d="M120.767,137.408l-18.82,2.521L98.2,129.637
				l-12.371,1.656l-0.797,10.908l-12.721,1.703l6.01-51.533l22.061-2.957L120.767,137.408z M87.96,98.973l-1.716,23.869
				l10.077-1.348l-7.269-22.67L87.96,98.973z"/>
			<path fill="#FFFFFF" stroke="#12110B" stroke-width="0.5" stroke-miterlimit="10" d="M117.113,87.174l15.791-2.115l5.314,39.684
				l16.914-2.266l1.362,10.148l-32.703,4.383L117.113,87.174z"/>
			<path fill="#FFFFFF" stroke="#12110B" stroke-width="0.5" stroke-miterlimit="10" d="M206.885,126.283l-18.818,2.521
				l-3.75-10.293l-12.371,1.656l-0.797,10.906l-12.723,1.703l6.012-51.533l22.061-2.957L206.885,126.283z M174.076,87.846
				l-1.715,23.871l10.076-1.352l-7.27-22.666L174.076,87.846z"/>
			<path fill="#FFFFFF" stroke="#12110B" stroke-width="0.5" stroke-miterlimit="10" d="M209.908,125.879l-6.674-49.832
				l17.338-2.323c4.277-0.571,8.184-0.585,11.723-0.043c3.541,0.539,6.627,1.669,9.266,3.384c2.627,1.717,4.779,4.023,6.451,6.924
				c1.666,2.895,2.777,6.41,3.33,10.547c0.424,3.15,0.477,6.006,0.164,8.572c-0.316,2.564-0.939,4.865-1.875,6.904
				c-0.934,2.039-2.152,3.824-3.658,5.35c-1.506,1.535-3.227,2.848-5.16,3.959c-1.932,1.107-4.051,2.006-6.359,2.695
				c-2.316,0.691-4.76,1.215-7.346,1.559L209.908,125.879z M224.186,112.486l1.059-0.141c1.832-0.246,3.48-0.641,4.936-1.184
				c1.457-0.539,2.654-1.389,3.588-2.541s1.568-2.684,1.893-4.596c0.332-1.908,0.297-4.367-0.105-7.375
				c-0.367-2.727-0.932-4.963-1.691-6.717c-0.758-1.752-1.719-3.102-2.873-4.062c-1.156-0.955-2.508-1.562-4.049-1.826
				c-1.539-0.258-3.262-0.262-5.166-0.006l-1.375,0.184L224.186,112.486z"/>
		</g>
		<g>
			<path fill="#1D1D1B" d="M2.712,30.055l34.961-4.68l1.239,9.231l-19.175,2.566l1.413,10.537l16.915-2.262l1.209,9.019
				l-16.916,2.269l1.458,10.887l19.173-2.565l1.36,10.149L9.387,79.889L2.712,30.055z"/>
			<path fill="#1D1D1B" d="M45.839,24.278l14.663-1.962l15.002,17.719l9.807-21.046l15.014-2.01l6.676,49.835l-16.14,2.159
				l-3.627-27.062l-8.989,21.255l-3.42,0.459L60.169,45.534l3.627,27.065l-11.281,1.513L45.839,24.278z"/>
			<path fill="#1D1D1B" d="M137.864,63.717c-3.081,0.414-5.873,0.447-8.382,0.104c-2.511-0.35-4.768-0.989-6.769-1.933
				c-2.004-0.936-3.756-2.136-5.253-3.597c-1.5-1.459-2.786-3.097-3.85-4.901c-1.07-1.807-1.927-3.742-2.573-5.809
				c-0.649-2.066-1.118-4.189-1.409-6.375c-0.291-2.165-0.355-4.337-0.194-6.523c0.162-2.184,0.559-4.301,1.197-6.348
				c0.633-2.042,1.522-3.982,2.663-5.808c1.145-1.828,2.551-3.461,4.225-4.91c1.672-1.442,3.618-2.657,5.841-3.65
				c2.221-0.992,4.743-1.677,7.564-2.052c2.819-0.378,5.431-0.382,7.835-0.012c2.405,0.375,4.609,1.033,6.616,1.984
				c2.005,0.95,3.8,2.159,5.383,3.62c1.581,1.462,2.954,3.096,4.118,4.9c1.16,1.807,2.11,3.744,2.842,5.808
				c0.73,2.066,1.242,4.181,1.529,6.344c0.293,2.184,0.395,4.36,0.303,6.525c-0.094,2.165-0.416,4.261-0.973,6.285
				c-0.553,2.02-1.367,3.936-2.44,5.741c-1.073,1.807-2.447,3.426-4.122,4.855c-1.67,1.436-3.679,2.648-6.021,3.645
				C143.65,62.6,140.941,63.304,137.864,63.717z M125.417,39.089c0.378,2.818,0.904,5.201,1.583,7.141
				c0.679,1.943,1.484,3.498,2.418,4.666c0.934,1.166,1.997,1.967,3.194,2.407c1.191,0.433,2.498,0.563,3.907,0.371
				c1.409-0.188,2.631-0.653,3.67-1.387c1.037-0.735,1.861-1.794,2.482-3.167c0.616-1.375,0.994-3.09,1.14-5.14
				c0.143-2.049,0.026-4.487-0.352-7.305c-0.379-2.819-0.909-5.211-1.588-7.159c-0.682-1.957-1.5-3.521-2.456-4.695
				c-0.96-1.177-2.036-1.995-3.236-2.456c-1.198-0.462-2.501-0.599-3.91-0.407c-1.41,0.188-2.631,0.662-3.667,1.423
				c-1.034,0.761-1.849,1.832-2.44,3.215c-0.591,1.381-0.96,3.104-1.1,5.171C124.918,33.827,125.038,36.27,125.417,39.089z"/>
			<path fill="#1D1D1B" d="M174.754,58.775c-2.137,0.287-4.223,0.409-6.246,0.371c-2.025-0.038-3.805-0.411-5.332-1.115
				l-1.346-10.043c1.639,0.284,3.143,0.398,4.514,0.35c1.367-0.055,2.543-0.149,3.531-0.278c1.057-0.143,1.857-0.472,2.396-0.988
				c0.543-0.51,0.918-1.132,1.131-1.854c0.217-0.723,0.301-1.516,0.256-2.382c-0.043-0.869-0.119-1.727-0.236-2.572L169.07,7.77
				l15.789-2.115l4.646,34.713c0.379,2.819,0.211,5.311-0.504,7.474c-0.715,2.169-1.773,4.012-3.184,5.544
				c-1.408,1.524-3.09,2.737-5.039,3.632C178.83,57.911,176.822,58.499,174.754,58.775z"/>
			<path fill="#1D1D1B" d="M193.592,4.485l15.787-2.116l6.68,49.834l-15.791,2.112L193.592,4.485z"/>
			<path fill="#1D1D1B" d="M62.757,107.623c-1.021-0.295-2.197-0.572-3.536-0.834c-1.339-0.266-2.732-0.479-4.176-0.646
				c-1.446-0.164-2.903-0.264-4.364-0.293c-1.461-0.031-2.829,0.037-4.096,0.209c-2.211,0.295-3.898,0.809-5.068,1.537
				c-1.17,0.73-1.663,1.768-1.484,3.107c0.084,0.633,0.375,1.162,0.877,1.584c0.498,0.426,1.172,0.789,2.03,1.092
				c0.85,0.309,1.861,0.576,3.032,0.812c1.166,0.242,2.46,0.48,3.879,0.721l2.682,0.465c2.248,0.369,4.297,0.902,6.133,1.604
				c1.838,0.695,3.438,1.594,4.794,2.689c1.352,1.098,2.457,2.418,3.31,3.953c0.85,1.535,1.415,3.34,1.691,5.408
				c0.327,2.418,0.238,4.674-0.259,6.762c-0.498,2.082-1.461,3.943-2.897,5.57c-1.431,1.625-3.358,2.996-5.778,4.107
				c-2.425,1.115-5.408,1.908-8.958,2.387c-3.147,0.42-6.312,0.582-9.493,0.484c-3.184-0.104-6.445-0.588-9.791-1.455l-1.558-11.631
				c3.238,1.145,6.331,1.889,9.283,2.223c2.951,0.33,5.812,0.312,8.586-0.057c2.275-0.307,3.892-0.895,4.838-1.762
				c0.947-0.869,1.339-1.949,1.164-3.242c-0.104-0.775-0.388-1.412-0.85-1.914c-0.463-0.498-1.151-0.924-2.072-1.281
				c-0.921-0.357-2.108-0.68-3.556-0.977c-1.451-0.295-3.203-0.615-5.258-0.963c-2.053-0.32-3.98-0.818-5.781-1.484
				c-1.8-0.668-3.394-1.553-4.783-2.645c-1.39-1.094-2.545-2.424-3.46-4c-0.917-1.578-1.518-3.436-1.803-5.572
				c-0.297-2.207-0.181-4.279,0.348-6.217c0.531-1.938,1.503-3.668,2.933-5.18c1.419-1.521,3.31-2.809,5.669-3.865
				c2.355-1.055,5.229-1.811,8.612-2.266c1.338-0.18,2.766-0.312,4.286-0.395c1.52-0.084,3.074-0.113,4.672-0.088
				c1.594,0.023,3.177,0.125,4.754,0.295c1.581,0.172,3.084,0.426,4.516,0.758L62.757,107.623z"/>
			<path fill="#1D1D1B" d="M120.767,137.408l-18.82,2.521L98.2,129.637l-12.371,1.656l-0.797,10.908l-12.721,1.703l6.01-51.533
				l22.061-2.957L120.767,137.408z M87.96,98.973l-1.716,23.869l10.077-1.348l-7.269-22.67L87.96,98.973z"/>
			<path fill="#1D1D1B" d="M117.113,87.174l15.791-2.115l5.314,39.684l16.914-2.266l1.362,10.148l-32.703,4.383L117.113,87.174z"/>
			<path fill="#1D1D1B" d="M206.885,126.283l-18.818,2.521l-3.75-10.293l-12.371,1.656l-0.797,10.906l-12.723,1.703l6.012-51.533
				l22.061-2.957L206.885,126.283z M174.076,87.846l-1.715,23.871l10.076-1.352l-7.27-22.666L174.076,87.846z"/>
			<path fill="#1D1D1B" d="M209.908,125.879l-6.674-49.832l17.338-2.323c4.277-0.571,8.184-0.585,11.723-0.043
				c3.541,0.539,6.627,1.669,9.266,3.384c2.627,1.717,4.779,4.023,6.451,6.924c1.666,2.895,2.777,6.41,3.33,10.547
				c0.424,3.15,0.477,6.006,0.164,8.572c-0.316,2.564-0.939,4.865-1.875,6.904c-0.934,2.039-2.152,3.824-3.658,5.35
				c-1.506,1.535-3.227,2.848-5.16,3.959c-1.932,1.107-4.051,2.006-6.359,2.695c-2.316,0.691-4.76,1.215-7.346,1.559
				L209.908,125.879z M224.186,112.486l1.059-0.141c1.832-0.246,3.48-0.641,4.936-1.184c1.457-0.539,2.654-1.389,3.588-2.541
				s1.568-2.684,1.893-4.596c0.332-1.908,0.297-4.367-0.105-7.375c-0.367-2.727-0.932-4.963-1.691-6.717
				c-0.758-1.752-1.719-3.102-2.873-4.062c-1.156-0.955-2.508-1.562-4.049-1.826c-1.539-0.258-3.262-0.262-5.166-0.006l-1.375,0.184
				L224.186,112.486z"/>
		</g>
		<g>
			<path fill="none" stroke="#1D1D1B" stroke-width="2" d="M2.712,30.055l34.961-4.68l1.239,9.231l-19.175,2.566l1.413,10.537
				l16.915-2.262l1.209,9.019l-16.916,2.269l1.458,10.887l19.173-2.565l1.36,10.149L9.387,79.889L2.712,30.055z"/>
			<path fill="none" stroke="#1D1D1B" stroke-width="2" d="M45.839,24.278l14.663-1.962l15.002,17.719l9.807-21.046l15.014-2.01
				l6.676,49.835l-16.14,2.159l-3.627-27.062l-8.989,21.255l-3.42,0.459L60.169,45.534l3.627,27.065l-11.281,1.513L45.839,24.278z"
				/>
			<path fill="none" stroke="#1D1D1B" stroke-width="2" d="M137.864,63.717c-3.081,0.414-5.873,0.447-8.382,0.104
				c-2.511-0.35-4.768-0.989-6.769-1.933c-2.004-0.936-3.756-2.136-5.253-3.597c-1.5-1.459-2.786-3.097-3.85-4.901
				c-1.07-1.807-1.927-3.742-2.573-5.809c-0.649-2.066-1.118-4.189-1.409-6.375c-0.291-2.165-0.355-4.337-0.194-6.523
				c0.162-2.184,0.559-4.301,1.197-6.348c0.633-2.042,1.522-3.982,2.663-5.808c1.145-1.828,2.551-3.461,4.225-4.91
				c1.672-1.442,3.618-2.657,5.841-3.65c2.221-0.992,4.743-1.677,7.564-2.052c2.819-0.378,5.431-0.382,7.835-0.012
				c2.405,0.375,4.609,1.033,6.616,1.984c2.005,0.95,3.8,2.159,5.383,3.62c1.581,1.462,2.954,3.096,4.118,4.9
				c1.16,1.807,2.11,3.744,2.842,5.808c0.73,2.066,1.242,4.181,1.529,6.344c0.293,2.184,0.395,4.36,0.303,6.525
				c-0.094,2.165-0.416,4.261-0.973,6.285c-0.553,2.02-1.367,3.936-2.44,5.741c-1.073,1.807-2.447,3.426-4.122,4.855
				c-1.67,1.436-3.679,2.648-6.021,3.645C143.65,62.6,140.941,63.304,137.864,63.717z M125.417,39.089
				c0.378,2.818,0.904,5.201,1.583,7.141c0.679,1.943,1.484,3.498,2.418,4.666c0.934,1.166,1.997,1.967,3.194,2.407
				c1.191,0.433,2.498,0.563,3.907,0.371c1.409-0.188,2.631-0.653,3.67-1.387c1.037-0.735,1.861-1.794,2.482-3.167
				c0.616-1.375,0.994-3.09,1.14-5.14c0.143-2.049,0.026-4.487-0.352-7.305c-0.379-2.819-0.909-5.211-1.588-7.159
				c-0.682-1.957-1.5-3.521-2.456-4.695c-0.96-1.177-2.036-1.995-3.236-2.456c-1.198-0.462-2.501-0.599-3.91-0.407
				c-1.41,0.188-2.631,0.662-3.667,1.423c-1.034,0.761-1.849,1.832-2.44,3.215c-0.591,1.381-0.96,3.104-1.1,5.171
				C124.918,33.827,125.038,36.27,125.417,39.089z"/>
			<path fill="none" stroke="#1D1D1B" stroke-width="2" d="M174.754,58.775c-2.137,0.287-4.223,0.409-6.246,0.371
				c-2.025-0.038-3.805-0.411-5.332-1.115l-1.346-10.043c1.639,0.284,3.143,0.398,4.514,0.35c1.367-0.055,2.543-0.149,3.531-0.278
				c1.057-0.143,1.857-0.472,2.396-0.988c0.543-0.51,0.918-1.132,1.131-1.854c0.217-0.723,0.301-1.516,0.256-2.382
				c-0.043-0.869-0.119-1.727-0.236-2.572L169.07,7.77l15.789-2.115l4.646,34.713c0.379,2.819,0.211,5.311-0.504,7.474
				c-0.715,2.169-1.773,4.012-3.184,5.544c-1.408,1.524-3.09,2.737-5.039,3.632C178.83,57.911,176.822,58.499,174.754,58.775z"/>
			<path fill="none" stroke="#1D1D1B" stroke-width="2" d="M193.592,4.485l15.787-2.116l6.68,49.834l-15.791,2.112L193.592,4.485z"
				/>
			<path fill="none" stroke="#1D1D1B" stroke-width="2" d="M62.757,107.623c-1.021-0.295-2.197-0.572-3.536-0.834
				c-1.339-0.266-2.732-0.479-4.176-0.646c-1.446-0.164-2.903-0.264-4.364-0.293c-1.461-0.031-2.829,0.037-4.096,0.209
				c-2.211,0.295-3.898,0.809-5.068,1.537c-1.17,0.73-1.663,1.768-1.484,3.107c0.084,0.633,0.375,1.162,0.877,1.584
				c0.498,0.426,1.172,0.789,2.03,1.092c0.85,0.309,1.861,0.576,3.032,0.812c1.166,0.242,2.46,0.48,3.879,0.721l2.682,0.465
				c2.248,0.369,4.297,0.902,6.133,1.604c1.838,0.695,3.438,1.594,4.794,2.689c1.352,1.098,2.457,2.418,3.31,3.953
				c0.85,1.535,1.415,3.34,1.691,5.408c0.327,2.418,0.238,4.674-0.259,6.762c-0.498,2.082-1.461,3.943-2.897,5.57
				c-1.431,1.625-3.358,2.996-5.778,4.107c-2.425,1.115-5.408,1.908-8.958,2.387c-3.147,0.42-6.312,0.582-9.493,0.484
				c-3.184-0.104-6.445-0.588-9.791-1.455l-1.558-11.631c3.238,1.145,6.331,1.889,9.283,2.223c2.951,0.33,5.812,0.312,8.586-0.057
				c2.275-0.307,3.892-0.895,4.838-1.762c0.947-0.869,1.339-1.949,1.164-3.242c-0.104-0.775-0.388-1.412-0.85-1.914
				c-0.463-0.498-1.151-0.924-2.072-1.281c-0.921-0.357-2.108-0.68-3.556-0.977c-1.451-0.295-3.203-0.615-5.258-0.963
				c-2.053-0.32-3.98-0.818-5.781-1.484c-1.8-0.668-3.394-1.553-4.783-2.645c-1.39-1.094-2.545-2.424-3.46-4
				c-0.917-1.578-1.518-3.436-1.803-5.572c-0.297-2.207-0.181-4.279,0.348-6.217c0.531-1.938,1.503-3.668,2.933-5.18
				c1.419-1.521,3.31-2.809,5.669-3.865c2.355-1.055,5.229-1.811,8.612-2.266c1.338-0.18,2.766-0.312,4.286-0.395
				c1.52-0.084,3.074-0.113,4.672-0.088c1.594,0.023,3.177,0.125,4.754,0.295c1.581,0.172,3.084,0.426,4.516,0.758L62.757,107.623z"
				/>
			<path fill="none" stroke="#1D1D1B" stroke-width="2" d="M120.767,137.408l-18.82,2.521L98.2,129.637l-12.371,1.656l-0.797,10.908
				l-12.721,1.703l6.01-51.533l22.061-2.957L120.767,137.408z M87.96,98.973l-1.716,23.869l10.077-1.348l-7.269-22.67L87.96,98.973z
				"/>
			<path fill="none" stroke="#1D1D1B" stroke-width="2" d="M117.113,87.174l15.791-2.115l5.314,39.684l16.914-2.266l1.362,10.148
				l-32.703,4.383L117.113,87.174z"/>
			<path fill="none" stroke="#1D1D1B" stroke-width="2" d="M206.885,126.283l-18.818,2.521l-3.75-10.293l-12.371,1.656
				l-0.797,10.906l-12.723,1.703l6.012-51.533l22.061-2.957L206.885,126.283z M174.076,87.846l-1.715,23.871l10.076-1.352
				l-7.27-22.666L174.076,87.846z"/>
			<path fill="none" stroke="#1D1D1B" stroke-width="2" d="M209.908,125.879l-6.674-49.832l17.338-2.323
				c4.277-0.571,8.184-0.585,11.723-0.043c3.541,0.539,6.627,1.669,9.266,3.384c2.627,1.717,4.779,4.023,6.451,6.924
				c1.666,2.895,2.777,6.41,3.33,10.547c0.424,3.15,0.477,6.006,0.164,8.572c-0.316,2.564-0.939,4.865-1.875,6.904
				c-0.934,2.039-2.152,3.824-3.658,5.35c-1.506,1.535-3.227,2.848-5.16,3.959c-1.932,1.107-4.051,2.006-6.359,2.695
				c-2.316,0.691-4.76,1.215-7.346,1.559L209.908,125.879z M224.186,112.486l1.059-0.141c1.832-0.246,3.48-0.641,4.936-1.184
				c1.457-0.539,2.654-1.389,3.588-2.541s1.568-2.684,1.893-4.596c0.332-1.908,0.297-4.367-0.105-7.375
				c-0.367-2.727-0.932-4.963-1.691-6.717c-0.758-1.752-1.719-3.102-2.873-4.062c-1.156-0.955-2.508-1.562-4.049-1.826
				c-1.539-0.258-3.262-0.262-5.166-0.006l-1.375,0.184L224.186,112.486z"/>
		</g>
		<g>
			<path fill="#FFFFFF" d="M2.712,30.055l34.961-4.68l1.239,9.231l-19.175,2.566l1.413,10.537l16.915-2.262l1.209,9.019
				l-16.916,2.269l1.458,10.887l19.173-2.565l1.36,10.149L9.387,79.889L2.712,30.055z"/>
			<path fill="#FFFFFF" d="M45.839,24.278l14.663-1.962l15.002,17.719l9.807-21.046l15.014-2.01l6.676,49.835l-16.14,2.159
				l-3.627-27.062l-8.989,21.255l-3.42,0.459L60.169,45.534l3.627,27.065l-11.281,1.513L45.839,24.278z"/>
			<path fill="#FFFFFF" d="M137.864,63.717c-3.081,0.414-5.873,0.447-8.382,0.104c-2.511-0.35-4.768-0.989-6.769-1.933
				c-2.004-0.936-3.756-2.136-5.253-3.597c-1.5-1.459-2.786-3.097-3.85-4.901c-1.07-1.807-1.927-3.742-2.573-5.809
				c-0.649-2.066-1.118-4.189-1.409-6.375c-0.291-2.165-0.355-4.337-0.194-6.523c0.162-2.184,0.559-4.301,1.197-6.348
				c0.633-2.042,1.522-3.982,2.663-5.808c1.145-1.828,2.551-3.461,4.225-4.91c1.672-1.442,3.618-2.657,5.841-3.65
				c2.221-0.992,4.743-1.677,7.564-2.052c2.819-0.378,5.431-0.382,7.835-0.012c2.405,0.375,4.609,1.033,6.616,1.984
				c2.005,0.95,3.8,2.159,5.383,3.62c1.581,1.462,2.954,3.096,4.118,4.9c1.16,1.807,2.11,3.744,2.842,5.808
				c0.73,2.066,1.242,4.181,1.529,6.344c0.293,2.184,0.395,4.36,0.303,6.525c-0.094,2.165-0.416,4.261-0.973,6.285
				c-0.553,2.02-1.367,3.936-2.44,5.741c-1.073,1.807-2.447,3.426-4.122,4.855c-1.67,1.436-3.679,2.648-6.021,3.645
				C143.65,62.6,140.941,63.304,137.864,63.717z M125.417,39.089c0.378,2.818,0.904,5.201,1.583,7.141
				c0.679,1.943,1.484,3.498,2.418,4.666c0.934,1.166,1.997,1.967,3.194,2.407c1.191,0.433,2.498,0.563,3.907,0.371
				c1.409-0.188,2.631-0.653,3.67-1.387c1.037-0.735,1.861-1.794,2.482-3.167c0.616-1.375,0.994-3.09,1.14-5.14
				c0.143-2.049,0.026-4.487-0.352-7.305c-0.379-2.819-0.909-5.211-1.588-7.159c-0.682-1.957-1.5-3.521-2.456-4.695
				c-0.96-1.177-2.036-1.995-3.236-2.456c-1.198-0.462-2.501-0.599-3.91-0.407c-1.41,0.188-2.631,0.662-3.667,1.423
				c-1.034,0.761-1.849,1.832-2.44,3.215c-0.591,1.381-0.96,3.104-1.1,5.171C124.918,33.827,125.038,36.27,125.417,39.089z"/>
			<path fill="#FFFFFF" d="M174.754,58.775c-2.137,0.287-4.223,0.409-6.246,0.371c-2.025-0.038-3.805-0.411-5.332-1.115
				l-1.346-10.043c1.639,0.284,3.143,0.398,4.514,0.35c1.367-0.055,2.543-0.149,3.531-0.278c1.057-0.143,1.857-0.472,2.396-0.988
				c0.543-0.51,0.918-1.132,1.131-1.854c0.217-0.723,0.301-1.516,0.256-2.382c-0.043-0.869-0.119-1.727-0.236-2.572L169.07,7.77
				l15.789-2.115l4.646,34.713c0.379,2.819,0.211,5.311-0.504,7.474c-0.715,2.169-1.773,4.012-3.184,5.544
				c-1.408,1.524-3.09,2.737-5.039,3.632C178.83,57.911,176.822,58.499,174.754,58.775z"/>
			<path fill="#FFFFFF" d="M193.592,4.485l15.787-2.116l6.68,49.834l-15.791,2.112L193.592,4.485z"/>
			<path fill="#FFFFFF" d="M62.757,107.623c-1.021-0.295-2.197-0.572-3.536-0.834c-1.339-0.266-2.732-0.479-4.176-0.646
				c-1.446-0.164-2.903-0.264-4.364-0.293c-1.461-0.031-2.829,0.037-4.096,0.209c-2.211,0.295-3.898,0.809-5.068,1.537
				c-1.17,0.73-1.663,1.768-1.484,3.107c0.084,0.633,0.375,1.162,0.877,1.584c0.498,0.426,1.172,0.789,2.03,1.092
				c0.85,0.309,1.861,0.576,3.032,0.812c1.166,0.242,2.46,0.48,3.879,0.721l2.682,0.465c2.248,0.369,4.297,0.902,6.133,1.604
				c1.838,0.695,3.438,1.594,4.794,2.689c1.352,1.098,2.457,2.418,3.31,3.953c0.85,1.535,1.415,3.34,1.691,5.408
				c0.327,2.418,0.238,4.674-0.259,6.762c-0.498,2.082-1.461,3.943-2.897,5.57c-1.431,1.625-3.358,2.996-5.778,4.107
				c-2.425,1.115-5.408,1.908-8.958,2.387c-3.147,0.42-6.312,0.582-9.493,0.484c-3.184-0.104-6.445-0.588-9.791-1.455l-1.558-11.631
				c3.238,1.145,6.331,1.889,9.283,2.223c2.951,0.33,5.812,0.312,8.586-0.057c2.275-0.307,3.892-0.895,4.838-1.762
				c0.947-0.869,1.339-1.949,1.164-3.242c-0.104-0.775-0.388-1.412-0.85-1.914c-0.463-0.498-1.151-0.924-2.072-1.281
				c-0.921-0.357-2.108-0.68-3.556-0.977c-1.451-0.295-3.203-0.615-5.258-0.963c-2.053-0.32-3.98-0.818-5.781-1.484
				c-1.8-0.668-3.394-1.553-4.783-2.645c-1.39-1.094-2.545-2.424-3.46-4c-0.917-1.578-1.518-3.436-1.803-5.572
				c-0.297-2.207-0.181-4.279,0.348-6.217c0.531-1.938,1.503-3.668,2.933-5.18c1.419-1.521,3.31-2.809,5.669-3.865
				c2.355-1.055,5.229-1.811,8.612-2.266c1.338-0.18,2.766-0.312,4.286-0.395c1.52-0.084,3.074-0.113,4.672-0.088
				c1.594,0.023,3.177,0.125,4.754,0.295c1.581,0.172,3.084,0.426,4.516,0.758L62.757,107.623z"/>
			<path fill="#FFFFFF" d="M120.767,137.408l-18.82,2.521L98.2,129.637l-12.371,1.656l-0.797,10.908l-12.721,1.703l6.01-51.533
				l22.061-2.957L120.767,137.408z M87.96,98.973l-1.716,23.869l10.077-1.348l-7.269-22.67L87.96,98.973z"/>
			<path fill="#FFFFFF" d="M117.113,87.174l15.791-2.115l5.314,39.684l16.914-2.266l1.362,10.148l-32.703,4.383L117.113,87.174z"/>
			<path fill="#FFFFFF" d="M206.885,126.283l-18.818,2.521l-3.75-10.293l-12.371,1.656l-0.797,10.906l-12.723,1.703l6.012-51.533
				l22.061-2.957L206.885,126.283z M174.076,87.846l-1.715,23.871l10.076-1.352l-7.27-22.666L174.076,87.846z"/>
			<path fill="#FFFFFF" d="M209.908,125.879l-6.674-49.832l17.338-2.323c4.277-0.571,8.184-0.585,11.723-0.043
				c3.541,0.539,6.627,1.669,9.266,3.384c2.627,1.717,4.779,4.023,6.451,6.924c1.666,2.895,2.777,6.41,3.33,10.547
				c0.424,3.15,0.477,6.006,0.164,8.572c-0.316,2.564-0.939,4.865-1.875,6.904c-0.934,2.039-2.152,3.824-3.658,5.35
				c-1.506,1.535-3.227,2.848-5.16,3.959c-1.932,1.107-4.051,2.006-6.359,2.695c-2.316,0.691-4.76,1.215-7.346,1.559
				L209.908,125.879z M224.186,112.486l1.059-0.141c1.832-0.246,3.48-0.641,4.936-1.184c1.457-0.539,2.654-1.389,3.588-2.541
				s1.568-2.684,1.893-4.596c0.332-1.908,0.297-4.367-0.105-7.375c-0.367-2.727-0.932-4.963-1.691-6.717
				c-0.758-1.752-1.719-3.102-2.873-4.062c-1.156-0.955-2.508-1.562-4.049-1.826c-1.539-0.258-3.262-0.262-5.166-0.006l-1.375,0.184
				L224.186,112.486z"/>
		</g>
	</g>
</g>
<g>
</g>
<g>
</g>
<g>
</g>
<g>
</g>
<g>
</g>
<g>
</g>
<g>
</g>
<g>
</g>
<g>
</g>
<g>
</g>
<g>
</g>
</svg>
